<?xml version="1.0" encoding="iso-8859-1"?>
<!-- Generator: Adobe Illustrator 19.0.0, SVG Export Plug-In . SVG Version: 6.00 Build 0)  -->
<svg version="1.1" id="Capa_1" xmlns="http://www.w3.org/2000/svg" xmlns:xlink="http://www.w3.org/1999/xlink" x="0px" y="0px"
	 viewBox="0 0 512 512" style="enable-background:new 0 0 512 512;" xml:space="preserve" fill="#eee">
<g>
	<g>
		<path d="M467,392c-8.291,0-15-6.709-15-15c0-8.291,6.709-15,15-15h36.678c-10.393-17.858-29.526-30-51.678-30H60
			c-33.137,0-60,26.863-60,60v45c0,8.284,6.716,15,15,15h31.518c6.969-34.191,37.266-60,73.482-60s66.513,25.809,73.482,60h125.036
			c6.969-34.191,37.266-60,73.482-60s66.513,25.809,73.482,60H497c8.284,0,15-6.716,15-15v-45H467z M286,392h-60
			c-8.291,0-15-6.709-15-15c0-8.291,6.709-15,15-15h60c8.291,0,15,6.709,15,15C301,385.291,294.291,392,286,392z"/>
	</g>
</g>
<g>
	<g>
		<path d="M372.675,48.325C341.518,17.168,300.077,0,256,0c-44.077,0-85.518,17.168-116.675,48.325
			c-5.859,5.859-5.859,15.352,0,21.211s15.352,5.86,21.211,0C186.039,44.048,219.936,30,256,30
			c36.064,0,69.961,14.048,95.464,39.536c5.859,5.859,15.352,5.859,21.211,0S378.534,54.184,372.675,48.325z"/>
	</g>
</g>
<g>
	<g>
		<path d="M330.209,90.791c-39.668-39.697-108.75-39.697-148.418,0c-5.859,5.859-5.859,15.366,0,21.211
			c5.859,5.859,15.352,5.859,21.211,0c28.359-28.389,77.637-28.389,105.996,0c5.859,5.859,15.352,5.859,21.211,0
			C336.068,106.157,336.068,96.65,330.209,90.791z"/>
	</g>
</g>
<g>
	<g>
		<path d="M287.802,133.198c-17.021-17.021-46.582-17.021-63.604,0c-5.859,5.859-5.859,15.352,0,21.211s15.352,5.86,21.211,0
			c5.684-5.684,15.498-5.684,21.182,0c5.859,5.859,15.352,5.859,21.211,0S293.661,139.057,287.802,133.198z"/>
	</g>
</g>
<g>
	<g>
		<circle cx="120" cy="467" r="45"/>
	</g>
</g>
<g>
	<g>
		<circle cx="392" cy="467" r="45"/>
	</g>
</g>
<g>
	<g>
		<path d="M377,221.455C364.197,195.879,338.504,180,309.925,180H241v122h175.272L377,221.455z"/>
	</g>
</g>
<g>
	<g>
		<path d="M172.075,180c-28.579,0-54.272,15.879-67.075,41.455L65.728,302H211V180H172.075z"/>
	</g>
</g>
</svg>
