<?xml version="1.0"?>
<svg xmlns="http://www.w3.org/2000/svg" viewBox="0 0 512 512" fill="#c0392b" width="512" height="512"><g id="Outline"><path d="M490.2,280.308,435.079,264.56,368,227.293V216a24.028,24.028,0,0,0-24-24H312V168h8V152H256v16h8v24H232a24.028,24.028,0,0,0-24,24v12.155l-47,37.6,10,12.494L218.807,240H280v48H136a8.17,8.17,0,0,0-.884.049l-72,8c-.228.025-.456.06-.681.105A57.754,57.754,0,0,0,16,352.79V392a8,8,0,0,0,8,8H70.458a47.989,47.989,0,1,0-5.779-16H32V352.79a41.634,41.634,0,0,1,.943-8.79H56V328H40.162c.422-.572.854-1.137,1.306-1.688a41.814,41.814,0,0,1,23.774-14.4l71.2-7.911H280v32H176v16H280v32H176v16H358.458a47.953,47.953,0,0,0,83.084,0H456a7.994,7.994,0,0,0,3.578-.845l32-16A8,8,0,0,0,496,376V288A8,8,0,0,0,490.2,280.308ZM112,344a32,32,0,1,1-32,32A32.036,32.036,0,0,1,112,344Zm304.007-71.734L389.784,288H296V240h61.927ZM280,168h16v24H280Zm-56,56v-8a8.009,8.009,0,0,1,8-8H344a8.009,8.009,0,0,1,8,8v8ZM400,408a32,32,0,1,1,32-32A32.036,32.036,0,0,1,400,408Zm80-104H448v16h32v51.056L454.111,384h-6.79a48,48,0,1,0-94.642,0H296V352h40V336H296V304h96a8.009,8.009,0,0,0,4.116-1.14l37.024-22.214L480,294.034Z"/><circle cx="112" cy="376" r="16"/><circle cx="400" cy="376" r="16"/><path d="M170.343,138.343a64.593,64.593,0,0,0-6.444,83.81l12.9-9.466a48.87,48.87,0,0,1,4.857-63.03Z"/><path d="M138.22,244.467l12.621-9.834a82.568,82.568,0,0,1,6.816-108.976l-11.314-11.314A98.59,98.59,0,0,0,138.22,244.467Z"/><path d="M112.5,266.649l12.49-10a116.238,116.238,0,0,1,8.672-154.994L122.343,90.343A132.22,132.22,0,0,0,112.5,266.649Z"/><path d="M397.893,149.657a48.448,48.448,0,0,1,1.49,67.128l11.8,10.811a64.416,64.416,0,0,0-1.971-89.253Z"/><path d="M421.893,125.657a82.5,82.5,0,0,1,5.641,110.434l12.393,10.119a98.5,98.5,0,0,0-6.72-131.867Z"/><path d="M455.753,255.154l12.654,9.791c40.634-52.52,35.819-127.584-11.2-174.6l-11.314,11.314C487.232,143,491.472,208.986,455.753,255.154Z"/></g></svg>
